PathFileType	4	(X/Y/Z)	KinectSkeleton.trc																																																	
DataRate	CameraRate	NumFrames	NumMarkers	Units	OrigDataRate	OrigDataStartFrame	OrigNumFrames																																													
60	60	8	17	mm	60	1	300																																													
Frame#	Time	Neck			ShoulderMid			R.Shoulder			L.Shoulder			R.Elbow			L.Elbow			R.Wrist			L.Wrist			HipCenter			R.Hip			L.Hip			R.Knee			L.Knee			R.Ankle			L.Ankle			R.Foot			L.Foot		
		X1	Y1	Z1	X2	Y2	Z2	X3	Y3	Z3	X4	Y4	Z4	X5	Y5	Z5	X6	Y6	Z6	X7	Y7	Z7	X8	Y8	Z8	X9	Y9	Z9	X10	Y10	Z10	X11	Y11	Z11	X12	Y12	Z12	X13	Y13	Z13	X14	Y14	Z14	X15	Y15	Z15	X16	Y16	Z16	X17	Y17	Z17
																																																				
1	0.079	-1958.886	779.423	-30.122	-1958.886	779.423	-30.122	-1967.657	694.423	127.73	-1930.041	704.322	-203.098	-2024.415	421.46	193.301	-1955.969	436.128	-283.172	-1920.328	209.113	227.244	-1850.745	225.68	-300.455	-1953.451	233.457	-37.343	-1965.574	233.581	45.409	-1940.008	233.32	-129.112	-2011.273	-170.62	45.88	-1951.928	-171.426	-172.264	-2122.954	-547.239	27.374	-2030.074	-550.188	-215.699	-2014.233	-678.564	68.264	-1890.551	-679.432	-203.793
2	0.152	-1964.185	786.011	-47.884	-1964.185	786.011	-47.884	-1971.958	705.645	116.238	-1931.292	714.588	-224.21	-2011.656	425.792	189.765	-1943.478	438.063	-298.69	-1903.978	209.94	223.915	-1831.607	225.503	-312.153	-1952.854	229.454	-43.649	-1964.355	230.451	40.852	-1940.101	228.348	-137.358	-2011.381	-181.678	41.89	-1962.738	-184.449	-176.347	-2127.308	-565.309	27.343	-2031.143	-573.479	-214.664	-2004.055	-687.625	69.898	-1871.921	-684.539	-206.05
3	0.214	-1964.093	784.089	-56.188	-1964.093	784.089	-56.188	-1969.485	704.607	109.073	-1932.737	714.264	-233.472	-2007.616	425.028	187.522	-1939.529	435.785	-304.328	-1894.529	211.375	222.813	-1820.03	226.461	-314.438	-1950.452	226.176	-47.184	-1962.942	227.856	37.405	-1936.601	224.314	-140.989	-2015.984	-184.677	41.822	-1961.748	-189.94	-174.925	-2124.716	-571.572	27.549	-2036.553	-578.997	-212.389	-1999.107	-692.513	69.221	-1871.196	-681.951	-207.189
4	0.318	-1963.784	782.322	-61.719	-1963.784	782.322	-61.719	-1968.768	705.616	104.598	-1932.867	711.483	-238.264	-2003.72	426.513	185.167	-1940.41	432.604	-306.319	-1891.449	212.694	220.471	-1815.661	226.424	-310.445	-1948.575	225.004	-52.543	-1959.403	225.863	32.206	-1936.568	224.051	-146.526	-2014.47	-185.975	39.15	-1962.214	-190.045	-177.032	-2125.16	-572.008	27.474	-2037.223	-579.084	-210.042	-2000.517	-693.145	70.721	-1869.832	-678.377	-205.689
5	0.383	-1960.898	783.896	-67.02	-1960.898	783.896	-67.02	-1967.003	708.215	99.93	-1932.905	711.012	-243.657	-2002.091	429.241	182.268	-1944.519	430.441	-305.499	-1886.023	217.254	218.546	-1816.787	225.679	-305.632	-1947.061	225.761	-55.759	-1958.08	226.947	29.074	-1934.842	224.447	-149.837	-2012.558	-185.519	36.242	-1962.488	-190.301	-177.047	-2127.98	-570.725	24.832	-2040.216	-579.377	-209.642	-2000.648	-688.524	70.386	-1873.579	-680.405	-204.798
6	0.477	-1960.07	781.846	-68.732	-1960.07	781.846	-68.732	-1965.785	706.76	97.76	-1931.647	710.157	-245.642	-2000.613	428.29	180.119	-1947.698	429.862	-305.408	-1886.673	215.762	217.137	-1821.891	224.405	-306.855	-1945.204	224.809	-59.486	-1955.948	226.22	25.231	-1933.29	223.243	-153.433	-2007.906	-185.781	35.516	-1962.307	-190.658	-181.122	-2127.641	-568.978	25.399	-2039.288	-579.419	-210.733	-2002.687	-689.213	69.946	-1874.466	-682.737	-205.618
7	0.547	-1956.58	781.795	-70.23	-1956.58	781.795	-70.23	-1963.37	705.408	95.412	-1926.827	709.451	-246.414	-2002.706	428.527	179.052	-1953.743	430.754	-307.041	-1888.918	216.376	215.546	-1834.728	221.833	-305.829	-1942.935	225.655	-62.829	-1954.888	226.717	21.561	-1929.679	224.478	-156.415	-2011.328	-183.829	33.444	-1952.73	-189.19	-180.747	-2125.578	-567.905	24.552	-2043.391	-574.119	-211.231	-2006.199	-691.841	72.688	-1884.209	-685.279	-206.444
8	0.609	-1952.738	780.671	-72.421	-1952.738	780.671	-72.421	-1962.542	706.559	93.565	-1926.646	709.637	-249.616	-2004.371	429.684	175.966	-1954.764	430.542	-307.753	-1896.621	215.169	216.662	-1843.969	217.169	-310.286	-1943.397	224.606	-63.785	-1954.376	226.424	20.722	-1931.221	222.59	-157.499	-2009.868	-184.252	31.955	-1959.857	-190.706	-181.937	-2124.685	-568.172	24.494	-2040.924	-577.866	-210.944	-2003.843	-691.236	71.17	-1881.144	-687.686	-199.732
